# xmcd CD database file
#
# Track frame offsets:
#	150
#	26317
#	52661
#	86339
#	118383
#	149814
#	205881
#	240375
#
# Disc length: 3465 seconds
#
# Revision: 0
# Processed by: cddbd v1.5.2PL0 Copyright (c) Steve Scherf et al.
# Submitted via: CDex 1.70beta2
#
DISCID=660d8708
DTITLE=Attila Laszlo  Friends - Babel
DYEAR=2009
DGENRE=Jazz
TTITLE0=A Dance, We Are Waiting For
TTITLE1=For My Dad
TTITLE2=Babel
TTITLE3=Correspondence
TTITLE4=Magic City
TTITLE5=Tell Your Story
TTITLE6=Walking Lion
TTITLE7=Pair Play
EXTD=YEAR: 2009
EXTT0=
EXTT1=
EXTT2=
EXTT3=
EXTT4=
EXTT5=
EXTT6=
EXTT7=
PLAYORDER=
